#!OML:ASF H:\ManfredETheater\Project 1\Capture day 1\Session 1\subject.ASF
:FULLY-SPECIFIED
:DEGREES
182
root 1.13196 16.1042 27.8531 -153.706 0.365735 177.753
lowerback 13.6124 -1.71546 -1.35377
upperback -0.0351872 -2.40508 2.86675
thorax -7.50597 -1.11613 4.30682
lowerneck -14.5678 1.06408 -0.465044
upperneck 3.52846 1.75197 -1.62346
head 3.77894 0.82972 -0.320276
rclavicle -2.74323e-014 2.42517e-014
rhumerus -38.7571 -0.799997 -84.5235
rradius 53.112
rwrist -6.5502
rhand -22.5423 -9.41273
rfingers 7.12502
rthumb 3.88509 -39.3571
lclavicle -2.74323e-014 2.42517e-014
lhumerus -36.5555 -10.2018 95.33
lradius 50.0446
lwrist -0.400424
lhand -14.1335 9.37539
lfingers 7.12502
lthumb 12.0004 39.0114
rfemur -54.5521 -4.42284 19.3758
rtibia 67.5383
rfoot -25.8211 -1.16027
rtoes -8.16788
lfemur -15.2196 -6.04523 -24.7739
ltibia 31.39
lfoot -33.9758 10.3239
ltoes -6.64072
183
root 1.14932 16.0763 27.6987 -153.339 0.485184 177.934
lowerback 13.7702 -1.76246 -1.15341
upperback 5.13397e-005 -2.43899 2.92939
thorax -7.55977 -1.14115 4.2741
lowerneck -14.4944 1.15821 -0.41598
upperneck 3.08722 1.88127 -1.68001
head 3.60924 0.903271 -0.338683
rclavicle -4.6118e-014 -2.18663e-014
rhumerus -39.3489 -0.786973 -84.5899
rradius 54.0869
rwrist -6.7054
rhand -22.7611 -9.00647
rfingers 7.12502
rthumb 3.67384 -38.9546
lclavicle -4.6118e-014 -2.18663e-014
lhumerus -36.5563 -10.4984 95.5387
lradius 51.3282
lwrist 0.421729
lhand -14.3502 9.31503
lfingers 7.12502
lthumb 11.7914 38.9631
rfemur -54.6986 -4.24785 19.5444
rtibia 68.1445
rfoot -25.8682 -1.04349
rtoes -8.99489
lfemur -15.063 -6.1507 -24.5704
ltibia 31.4668
lfoot -33.8718 10.5106
ltoes -7.8116
184
root 1.16773 16.0495 27.5399 -152.978 0.591843 178.12
lowerback 13.9275 -1.98518 -0.994776
upperback 0.046407 -2.42501 2.99262
thorax -7.60107 -1.02446 4.24014
lowerneck -14.4192 1.24157 -0.379124
upperneck 2.64295 1.99882 -1.73001
head 3.439 0.971843 -0.353935
rclavicle 5.96354e-015 -2.34566e-014
rhumerus -39.9694 -0.80311 -84.6356
rradius 55.0636
rwrist -6.8646
rhand -22.9887 -8.59673
rfingers 7.12502
rthumb 3.45397 -38.5485
lclavicle 5.96354e-015 -2.34566e-014
lhumerus -36.5342 -10.7574 95.7205
lradius 52.7091
lwrist 1.25667
lhand -14.586 9.22564
lfingers 7.12502
lthumb 11.564 38.8866
rfemur -54.8046 -4.07111 19.7277
rtibia 68.7272
rfoot -25.8938 -0.96073
rtoes -9.82218
lfemur -14.9212 -6.26364 -24.3503
ltibia 31.6148
lfoot -33.7158 10.6297
ltoes -9.05497
185
root 1.18732 16.0241 27.3768 -152.622 0.687049 178.304
lowerback 14.0765 -2.03477 -0.793794
upperback 0.0868034 -2.44502 3.05284
thorax -7.64593 -1.03656 4.20044
lowerneck -14.3519 1.31328 -0.348066
upperneck 2.1992 2.10271 -1.77445
head 3.27137 1.03448 -0.367558
rclavicle -2.16675e-014 -7.55382e-015
rhumerus -40.6063 -0.86073 -84.6632
rradius 56.0269
rwrist -7.00554
rhand -23.2147 -8.15747
rfingers 7.12502
rthumb 3.23576 -38.1127
lclavicle -2.16675e-014 -7.55382e-015
lhumerus -36.4862 -10.9824 95.8707
lradius 54.1893
lwrist 2.07809
lhand -14.8473 9.10621
lfingers 7.12502
lthumb 11.3121 38.7811
rfemur -54.8711 -3.89629 19.9263
rtibia 69.2895
rfoot -25.8989 -0.932459
rtoes -10.7346
lfemur -14.8171 -6.38244 -24.1159
ltibia 31.8739
lfoot -33.513 10.6647
ltoes -10.3641
186
root 1.20806 16 27.2093 -152.269 0.768192 178.487
lowerback 14.2175 -2.08148 -0.594231
upperback 0.128665 -2.46078 3.11206
thorax -7.68505 -1.04662 4.15926
lowerneck -14.284 1.37458 -0.328101
upperneck 1.75462 2.19516 -1.81176
head 3.10405 1.09229 -0.377962
rclavicle -3.06128e-014 5.1684e-015
rhumerus -41.2568 -0.953486 -84.6728
rradius 56.9657
rwrist -7.10661
rhand -23.437 -7.68027
rfingers 7.12502
rthumb 3.02105 -37.6386
lclavicle -3.06128e-014 5.1684e-015
lhumerus -36.4175 -11.1625 95.9902
lradius 55.7736
lwrist 2.86327
lhand -15.1263 8.96415
lfingers 7.12502
lthumb 11.0429 38.6537
rfemur -54.8894 -3.72657 20.1449
rtibia 69.8162
rfoot -25.8882 -0.976359
rtoes -11.7508
lfemur -14.7568 -6.50935 -23.8652
ltibia 32.2463
lfoot -33.2445 10.6004
ltoes -11.7411
187
root 1.23002 15.9733 27.039 -151.925 0.83326 178.667
lowerback 14.3462 -2.12401 -0.392246
upperback 0.17799 -2.4702 3.16721
thorax -7.71005 -1.05396 4.11017
lowerneck -14.2267 1.42365 -0.31512
upperneck 1.31128 2.27349 -1.84125
head 2.93988 1.14401 -0.385741
rclavicle -7.85199e-014 6.36111e-015
rhumerus -41.9062 -1.08587 -84.6676
rradius 57.8676
rwrist -7.16169
rhand -23.6693 -7.1748
rfingers 7.12502
rthumb 2.7967 -37.1362
lclavicle -7.85199e-014 6.36111e-015
lhumerus -36.3234 -11.3108 96.0792
lradius 57.4659
lwrist 3.61046
lhand -15.4376 8.82116
lfingers 7.12502
lthumb 10.7427 38.5265
rfemur -54.8745 -3.55615 20.379
rtibia 70.319
rfoot -25.8623 -1.08384
rtoes -12.8078
lfemur -14.7601 -6.63746 -23.5976
ltibia 32.7685
lfoot -32.903 10.4238
ltoes -13.1939
188
root 1.2531 15.9525 26.8629 -151.591 0.877374 178.843
lowerback 14.473 -2.16273 -0.19145
upperback 0.229888 -2.47389 3.22228
thorax -7.73153 -1.05836 4.06036
lowerneck -14.1766 1.46206 -0.310848
upperneck 0.875872 2.34012 -1.86942
head 2.78051 1.19036 -0.392524
rclavicle -1.0138e-014 3.26007e-014
rhumerus -42.5611 -1.24998 -84.6438
rradius 58.7307
rwrist -7.17841
rhand -23.9092 -6.62546
rfingers 7.12502
rthumb 2.56509 -36.5898
lclavicle -1.0138e-014 3.26007e-014
lhumerus -36.2163 -11.4155 96.1463
lradius 59.2754
lwrist 4.31215
lhand -15.7726 8.69773
lfingers 7.12502
lthumb 10.4195 38.4195
rfemur -54.7695 -3.39261 20.6292
rtibia 70.7517
rfoot -25.8358 -1.26806
rtoes -13.9649
lfemur -14.8302 -6.75163 -23.3109
ltibia 33.4526
lfoot -32.4724 10.1077
ltoes -14.7262
189
root 1.27736 15.9336 26.6826 -151.268 0.903231 179.012
lowerback 14.5956 -2.1951 0.00644141
upperback 0.2861 -2.46906 3.27502
thorax -7.74659 -1.05851 4.00755
lowerneck -14.1368 1.48905 -0.313638
upperneck 0.447218 2.39393 -1.89537
head 2.62604 1.2309 -0.398308
rclavicle 1.90833e-014 -3.18055e-014
rhumerus -43.2133 -1.44878 -84.6067
rradius 59.5493
rwrist -7.17657
rhand -24.176 -6.05648
rfingers 7.12502
rthumb 2.30741 -36.0237
lclavicle 1.90833e-014 -3.18055e-014
lhumerus -36.0983 -11.4833 96.1939
lradius 61.2101
lwrist 4.97867
lhand -16.1216 8.62735
lfingers 7.12502
lthumb 10.0828 38.3658
rfemur -54.5939 -3.22508 20.8829
rtibia 71.1255
rfoot -25.812 -1.49357
rtoes -15.0873
lfemur -14.999 -6.83046 -23.0071
ltibia 34.3413
lfoot -31.935 9.63499
ltoes -16.3492
